<?xml version="1.0" encoding="UTF-8"?>
<svg xmlns="http://www.w3.org/2000/svg" xmlns:xlink="http://www.w3.org/1999/xlink" viewBox="0 0 425.2 287.98">
  <defs>
    <filter id="drop-shadow-1" x="100.21" y="2.5" width="229.2" height="195.12" filterUnits="userSpaceOnUse">
      <feOffset dx="4" dy="4"/>
      <feGaussianBlur result="blur" stdDeviation="5"/>
      <feFlood flood-color="#000" flood-opacity=".75"/>
      <feComposite in2="blur" operator="in"/>
      <feComposite in="SourceGraphic"/>
    </filter>
    <filter id="drop-shadow-2" x="18.85" y="165.22" width="395.28" height="137.52" filterUnits="userSpaceOnUse">
      <feOffset dx="4" dy="4"/>
      <feGaussianBlur result="blur-2" stdDeviation="5"/>
      <feFlood flood-color="#000" flood-opacity=".75"/>
      <feComposite in2="blur-2" operator="in"/>
      <feComposite in="SourceGraphic"/>
    </filter>
  </defs>
  <g id="OBJECTS">
    <g filter="url(#drop-shadow-1)">
      <path d="M190.51,33.21h41.73c1.63,0,3.25.07,4.85.2,3.83.32,7.51-1.54,9.43-4.87h0c3.58-6.22-.51-14.07-7.65-14.67-2.18-.18-4.39-.28-6.62-.28h-41.44c-43.29,0-79.84,35.42-79.54,78.71.15,21.36,8.88,40.69,22.89,54.71,14.14,14.14,33.68,22.88,55.26,22.88h42.83c2.23,0,4.44-.09,6.62-.28,7.15-.6,11.23-8.46,7.65-14.67h0c-1.92-3.33-5.6-5.19-9.43-4.87-1.6.13-3.22.2-4.85.2h-42.83c-32.76,0-59.31-27.03-58.52-59.95.77-31.95,27.66-57.1,59.62-57.1Z" fill="#fff"/>
      <path d="M133.82,133.18l-14.11,36.06c-2.27,5.8,3.79,11.34,9.37,8.57l39.54-19.67-34.8-24.96Z" fill="#fff"/>
      <g>
        <path d="M264.45,59.65c-2.45-2.46-5.21-4.65-8.2-6.51-1.94-1.21-4.23-1.57-6.46-1.01-2.24.56-4.1,1.97-5.26,3.98-.72,1.27-1.11,2.71-1.11,4.14,0,2.94,1.51,5.64,4.04,7.22,8.44,5.27,13.48,14.34,13.48,24.27s-5.04,18.99-13.49,24.26c-3.89,2.44-5.17,7.44-2.91,11.38,1.5,2.6,4.3,4.21,7.31,4.21,1.55,0,3.07-.43,4.39-1.25,13.46-8.35,21.5-22.78,21.5-38.61,0-12.13-4.72-23.53-13.29-32.09Z" fill="#04b7b7"/>
        <path d="M238.09,103.43c-6.46,0-11.69-5.23-11.69-11.69s5.23-11.69,11.69-11.69,11.69,5.23,11.69,11.69-5.23,11.69-11.69,11.69Z" fill="#ef5f33"/>
        <path d="M310.38,91.75c0,28.08-14.8,52.69-37.02,66.47-1.6.99-3.36,1.45-5.1,1.45-3.41,0-6.73-1.78-8.56-4.94-2.67-4.64-1.07-10.49,3.47-13.33,16.56-10.34,27.59-28.72,27.59-49.65s-11.03-39.32-27.59-49.66c-3.05-1.91-4.77-5.17-4.77-8.51,0-1.63.43-3.29,1.3-4.82,2.77-4.81,8.97-6.4,13.68-3.47,5.14,3.19,9.88,6.95,14.12,11.21,14.14,14.14,22.88,33.68,22.88,55.26Z" fill="#c63c3c"/>
      </g>
    </g>
  </g>
  <g id="TEXTS">
    <g filter="url(#drop-shadow-2)">
      <text transform="translate(30.08 263.21)" fill="#fff" font-family="DenkOne-Regular, &apos;Denk One&apos;" font-size="95.07" letter-spacing=".08em"><tspan x="0" y="0">Speakly</tspan></text>
    </g>
  </g>
</svg>